<svg viewBox="0 0 80 80">
    <g id="heart" stroke="none" stroke-width="1" fill="none" fill-rule="evenodd">
        <g transform="translate(0.000000, 3.000000)" fill="#000000" fill-rule="nonzero" id="Shape">
            <path d="M40,74 C38.8610841,74 37.7630616,73.5710219 36.9073486,72.7917539 C33.6755372,69.8536344 30.5596923,67.0925634 27.8106689,64.6570335 L27.7966309,64.6443419 C19.7369384,57.5033787 12.7770997,51.3365005 7.93457031,45.2616368 C2.52136234,38.470329 0,32.0312146 0,24.9968614 C0,18.1624018 2.25402828,11.8571845 6.34643562,7.2418619 C10.4876709,2.57196511 16.1700439,0 22.3486328,0 C26.9665528,0 31.1956787,1.51792268 34.9182128,4.51125095 C36.796875,6.02219318 38.4997559,7.8713683 40,10.0283162 C41.5008545,7.8713683 43.203125,6.02219318 45.0823975,4.51125095 C48.8049316,1.51792268 53.0340577,0 57.6519775,0 C63.8299561,0 69.5129394,2.57196511 73.6541748,7.2418619 C77.746582,11.8571845 80,18.1624018 80,24.9968614 C80,32.0312146 77.4792481,38.470329 72.06604,45.2610023 C67.2235108,51.3365005 60.2642822,57.5027442 52.2058106,64.6430728 C49.4519044,67.0824101 46.3311767,69.847923 43.0920409,72.7930231 C42.2369384,73.5710219 41.1383056,74 40,74 L40,74 Z M22.3486328,4.87232883 C17.4945069,4.87232883 13.0352783,6.88649539 9.79125969,10.5442322 C6.49902344,14.2571777 4.68566891,19.3896855 4.68566891,24.9968614 C4.68566891,30.9130792 6.80053719,36.2042328 11.5423584,42.1528144 C16.1254883,47.9027716 22.9425048,53.9427331 30.8355713,60.936473 L30.8502197,60.9491648 C33.6096191,63.3942133 36.7376709,66.1660721 39.9932861,69.1257675 C43.2684327,66.1603608 46.4013672,63.38406 49.1662597,60.9352039 C57.0587158,53.941464 63.875122,47.9027716 68.4582519,42.1528144 C73.1994628,36.2042328 75.3143311,30.9130792 75.3143311,24.9968614 C75.3143311,19.3896855 73.5009766,14.2571777 70.2087403,10.5442322 C66.965332,6.88649539 62.5054931,4.87232883 57.6519775,4.87232883 C54.0960694,4.87232883 50.8312987,6.0475765 47.9486084,8.365074 C45.3796387,10.4312765 43.5900878,13.0432202 42.5408936,14.8708194 C42.0013428,15.810637 41.0516358,16.3716085 40,16.3716085 C38.9483642,16.3716085 37.9986572,15.810637 37.4591064,14.8708194 C36.4105225,13.0432202 34.6209717,10.4312765 32.0513916,8.365074 C29.1687012,6.0475765 25.9039306,4.87232883 22.3486328,4.87232883 Z"></path>
        </g>
    </g>
</svg>