<?xml version="1.0" encoding="UTF-8"?>
<svg width="80px" height="80px" viewBox="0 0 80 80" version="1.1" xmlns="http://www.w3.org/2000/svg" xmlns:xlink="http://www.w3.org/1999/xlink">
    <!-- Generator: Sketch 62 (91390) - https://sketch.com -->
    <title>heart-fill</title>
    <desc>Created with Sketch.</desc>
    <g id="heart-fill" stroke="none" stroke-width="1" fill="none" fill-rule="evenodd">
        <g id="heart" transform="translate(0.000000, 3.000000)" fill="#000000" fill-rule="nonzero">
            <path d="M40,74 C38.8610841,74 37.7630616,73.5710219 36.9073486,72.7917539 C33.6755372,69.8536344 30.5596923,67.0925634 27.8106689,64.6570335 L27.7966309,64.6443419 C19.7369384,57.5033787 12.7770997,51.3365005 7.93457031,45.2616368 C2.52136234,38.470329 0,32.0312146 0,24.9968614 C0,18.1624018 2.25402828,11.8571845 6.34643562,7.2418619 C10.4876709,2.57196511 16.1700439,0 22.3486328,0 C26.9665528,0 31.1956787,1.51792268 34.9182128,4.51125095 C36.796875,6.02219318 38.4997559,7.8713683 40,10.0283162 C41.5008545,7.8713683 43.203125,6.02219318 45.0823975,4.51125095 C48.8049316,1.51792268 53.0340577,0 57.6519775,0 C63.8299561,0 69.5129394,2.57196511 73.6541748,7.2418619 C77.746582,11.8571845 80,18.1624018 80,24.9968614 C80,32.0312146 77.4792481,38.470329 72.06604,45.2610023 C67.2235108,51.3365005 60.2642822,57.5027442 52.2058106,64.6430728 C49.4519044,67.0824101 46.3311767,69.847923 43.0920409,72.7930231 C42.2369384,73.5710219 41.1383056,74 40,74 L40,74 Z" id="Shape"></path>
        </g>
    </g>
</svg>