<svg viewBox="0 0 80 80">
    <g stroke="none" stroke-width="1" fill="none" fill-rule="evenodd">
        <g transform="translate(0.000000, 3.000000)" fill="#000000" fill-rule="nonzero" id="Shape">
            <path d="M77.8515739,32.1864318 C77.8491323,32.1847382 77.847301,32.1824799 77.8454697,32.1807861 L45.2085062,1.99577335 C43.8173744,0.708541906 41.9678223,0 40.0004604,0 C38.0330987,0 36.1835466,0.708541906 34.7918045,1.99577335 L2.17193248,32.1655426 C2.16094496,32.175705 2.14934707,32.1864318 2.13897009,32.1965942 C-0.717763785,34.8540497 -0.712880479,39.1657104 2.15300963,41.816391 C3.46234595,43.0279693 5.19103619,43.7291718 7.0399778,43.803131 C7.11566904,43.8099061 7.19136028,43.8132935 7.26766189,43.8132935 L8.56784213,43.8132935 L8.56784213,66.0270692 C8.56784213,70.4234161 12.4354203,74 17.1887081,74 L29.9573317,74 C31.2520183,74 32.3013185,73.0289307 32.3013185,71.8320312 L32.3013185,54.4160156 C32.3013185,52.41008 34.0660232,50.7784576 36.2348213,50.7784576 L43.7660997,50.7784576 C45.9348978,50.7784576 47.6989921,52.41008 47.6989921,54.4160156 L47.6989921,71.8320312 C47.6989921,73.0289307 48.7482923,74 50.0429789,74 L62.8116026,74 C67.5655007,74 71.4324685,70.4234161 71.4324685,66.0270692 L71.4324685,43.8132935 L72.638645,43.8132935 C74.6053964,43.8132935 76.4549485,43.1047516 77.847301,41.8169556 C80.7162431,39.1623231 80.7174639,34.8427582 77.8515739,32.1864318 L77.8515739,32.1864318 Z M74.2246393,39.242516 C73.7231102,39.708198 73.0564211,39.9649129 72.3479886,39.9649129 L68.8294195,39.9649129 C67.546255,39.9649129 66.5062928,40.9305431 66.5062928,42.1219925 L66.5062928,66.3812743 C66.5062928,68.3765729 64.7578979,70 62.6084007,70 L52.2765366,70 L52.2765366,54.8285398 C52.2765366,50.4542744 48.4439824,46.895093 43.732391,46.895093 L36.2681364,46.895093 C31.556545,46.895093 27.7233858,50.4542744 27.7233858,54.8285398 L27.7233858,70 L17.3915218,70 C15.2426295,70 13.4936297,68.3765729 13.4936297,66.3812743 L13.4936297,42.1219925 C13.4936297,40.9305431 12.4536674,39.9649129 11.1705029,39.9649129 L7.71243198,39.9649129 C7.67613312,39.9626659 7.64043921,39.9609807 7.60353541,39.960419 C6.91143724,39.9491842 6.26229275,39.6941544 5.77588809,39.2419541 C4.74137064,38.2813797 4.74137064,36.7180586 5.77588809,35.7569223 C5.77649303,35.7569223 5.77649303,35.7563606 5.77709797,35.7557989 L5.77891295,35.7541137 L38.1242178,5.72183521 C38.625142,5.25615321 39.2912261,5 40.0002636,5 C40.7086963,5 41.3747803,5.25615321 41.8763096,5.72183521 L74.2143547,35.7479345 C74.2191945,35.7524284 74.2246393,35.7569223 74.2294791,35.7614162 C75.2585517,36.723676 75.2567368,38.2836266 74.2246393,39.242516 Z"></path>
        </g>
    </g>
</svg>