<svg viewBox="0 0 80 80">
    <g id="sheet" stroke="none" stroke-width="1" fill="none" fill-rule="evenodd">
        <g id="news-(1)" fill="#000000" fill-rule="nonzero">
            <path d="M77.65625,8.88222104 C75.7723438,8.88222104 73.9484375,8.93250021 72.1859375,9.0251112 L72.1859375,2.43286311 C72.1859375,1.08927391 71.1365625,0 69.8421875,0 C57.8204688,0 49.7971875,4.94292909 45.1834375,9.08950098 C42.8803125,11.1593809 41.1784375,13.2350997 39.999375,14.897394 C38.8203125,13.2350997 37.1184375,11.1593809 34.8153125,9.08950098 C30.2015625,4.94292909 22.178125,0 10.1564062,0 C8.86203125,0 7.81265625,1.08927391 7.81265625,2.43286311 L7.81265625,9.04506068 C6.03765625,8.94044757 4.21375,8.88222104 2.34375,8.88222104 C1.049375,8.88222104 0,9.97149495 0,11.3150842 L0,69.4575932 C0,70.8011824 1.049375,71.8904563 2.34375,71.8904563 C23.3121875,71.8904563 38.7367188,79.633773 38.960625,79.747631 C39.2890625,79.9163095 39.6448437,80 39.9998438,80 C40.391875,80 40.7823438,79.8968466 41.1340625,79.6947568 C41.135,79.6942702 41.1359375,79.6950812 41.1370313,79.6944324 C41.2725,79.6164186 54.9501563,71.8904563 77.65625,71.8904563 C78.950625,71.8904563 80,70.8011824 80,69.4575932 L80,11.3150842 C80,9.97133276 78.950625,8.88222104 77.65625,8.88222104 Z M67.4984375,4.93514392 L67.4984375,9.38095798 C58.9489063,10.2305138 52.1096875,12.029535 47.2604688,13.700101 C47.6228125,13.3439298 48.0054687,12.9853258 48.409375,12.6272083 C53.6725,7.96211221 60.0854688,5.38019568 67.4984375,4.93514392 Z M12.5001563,4.93514392 C19.9129688,5.38003349 26.3260938,7.96211221 31.5892188,12.6272083 C32.1004688,13.0803696 32.5767188,13.5341797 33.0215625,13.983124 C28.0345313,12.2783358 20.966875,10.3620506 12.5001563,9.43869793 L12.5001563,4.93514392 Z M4.6875,13.7798989 C21.07125,14.2273835 33.6946875,19.2345402 37.65625,20.9965818 L37.65625,73.8638327 C32.0704688,71.5626685 20.034375,67.4438313 4.6875,67.0542488 L4.6875,13.7798989 Z M75.3125,67.0506806 C59.1828125,67.409609 47.74,71.3962607 42.34375,73.7460821 L42.34375,20.9315433 C45.9920312,19.1613921 57.7414063,14.1900796 75.3125,13.7753575 L75.3125,67.0506806 Z" id="Shape"></path>
        </g>
    </g>
</svg>