<svg viewBox="0 0 80 80">
    <g id="sheet" stroke="none" stroke-width="1" fill="none" fill-rule="evenodd">
        <g id="news" transform="translate(0.000000, 0.000000)" fill="#000000" fill-rule="nonzero">
            <path d="M77.1213389,19.994477 L62.8396653,19.994477 L62.8396653,2.85640167 C62.8396653,1.27882845 61.5608368,0 59.9832636,0 L2.85640167,0 C1.27882845,0 0,1.27882845 0,2.85640167 L0,68.5523013 C0,74.8624268 5.11531381,79.9777406 11.4254393,79.9777406 L68.5523013,79.9777406 C74.8624268,79.9777406 79.9777406,74.8624268 79.9777406,68.5523013 L79.9777406,22.8507113 C79.9777406,21.2733054 78.6989121,19.994477 77.1213389,19.994477 Z M11.4254393,74.2649372 C8.27046025,74.2649372 5.71280335,71.7072803 5.71280335,68.5523013 L5.71280335,5.71263598 L57.1270293,5.71263598 L57.1270293,68.5523013 C57.1338912,69.2408368 57.203682,69.927364 57.3355649,70.6031799 C57.3641841,70.7660251 57.3954812,70.9260251 57.432636,71.0858577 C57.5737238,71.732887 57.7705439,72.3665272 58.0210879,72.9795816 C58.0210879,73.0082008 58.0497071,73.0338075 58.0610879,73.0595816 C58.2368201,73.4729707 58.4371548,73.8754812 58.6609205,74.2649372 L11.4254393,74.2649372 Z M74.2649372,68.5523013 C74.2649372,71.7072803 71.7072803,74.2649372 68.5523013,74.2649372 C65.3973222,74.2649372 62.8396653,71.7072803 62.8396653,68.5523013 L62.8396653,25.707113 L74.2651046,25.707113 L74.2651046,68.5523013 L74.2649372,68.5523013 Z" id="Shape"></path>
            <path d="M39.9887866,14.2816736 L22.8507113,14.2816736 C21.2731381,14.2816736 19.9943096,15.5605021 19.9943096,17.1380753 C19.9943096,18.7156485 21.2731381,19.994477 22.8507113,19.994477 L39.9887866,19.994477 C41.5663598,19.994477 42.8451883,18.7156485 42.8451883,17.1380753 C42.8451883,15.5605021 41.5663598,14.2816736 39.9887866,14.2816736 Z" id="Path"></path>
            <path d="M48.5578243,28.5635146 L14.2816736,28.5635146 C12.7041004,28.5635146 11.425272,29.8423431 11.425272,31.4199163 C11.425272,32.9974895 12.7041004,34.276318 14.2816736,34.276318 L48.5578243,34.276318 C50.1353975,34.276318 51.4142259,32.9974895 51.4142259,31.4199163 C51.4142259,29.8423431 50.1353975,28.5635146 48.5578243,28.5635146 Z" id="Path"></path>
            <path d="M48.5578243,39.9887866 L14.2816736,39.9887866 C12.7041004,39.9887866 11.425272,41.2676151 11.425272,42.8451883 C11.425272,44.4227615 12.7041004,45.70159 14.2816736,45.70159 L48.5578243,45.70159 C50.1353975,45.70159 51.4142259,44.4227615 51.4142259,42.8451883 C51.4142259,41.2676151 50.1353975,39.9887866 48.5578243,39.9887866 Z" id="Path"></path>
        </g>
    </g>
</svg>