<svg viewBox="0 0 80 80">
    <g id="user" stroke="none" stroke-width="1" fill="none" fill-rule="evenodd">
        <g transform="translate(12.000000, 3.000000)" fill="#000000" fill-rule="nonzero" id="Shape">
            <path d="M27.8674316,38.5363769 C33.1616211,38.5363769 37.7453612,36.6375733 41.4916992,32.8912353 C45.2368164,29.1455078 47.1362305,24.562378 47.1362305,19.2675781 C47.1362305,13.9746094 45.2374267,9.39086906 41.4910889,5.64392094 C37.7447509,1.89880375 33.1610108,0 27.8674316,0 C22.5726319,0 17.9895019,1.89880375 14.2437744,5.64453125 C10.4980469,9.39025875 8.59863281,13.9739991 8.59863281,19.2675781 C8.59863281,24.562378 10.4980469,29.1461181 14.2437744,32.8918456 C17.9907227,36.6369628 22.5744628,38.5363769 27.8674316,38.5363769 Z M17.5592041,8.95935063 C20.4333497,6.085205 23.8049316,4.68811031 27.8674316,4.68811031 C31.9293212,4.68811031 35.3015137,6.085205 38.1762695,8.95935063 C41.050415,11.8341064 42.4481202,15.2062988 42.4481202,19.2675781 C42.4481202,23.3300781 41.050415,26.7016602 38.1762695,29.5764159 C35.3015137,32.4511719 31.9293212,33.8482666 27.8674316,33.8482666 C23.8061523,33.8482666 20.4345703,32.4505616 17.5592041,29.5764159 C14.6844483,26.7022705 13.2867431,23.3300781 13.2867431,19.2675781 C13.2867431,15.2062988 14.6844483,11.8341064 17.5592041,8.95935063 Z"></path>
            <path d="M55.864294,58.3572072 C55.7736526,57.0379728 55.5903213,55.598902 55.3204456,54.0792514 C55.0480093,52.5482372 54.6972219,51.1009017 54.2773014,49.7780517 C53.843042,48.4107794 53.2536168,47.0605529 52.5238767,45.7666288 C51.7675074,44.4236338 50.8785047,43.254195 49.8809372,42.2918875 C48.8377929,41.2851577 47.5606196,40.4757449 46.0837282,39.8853437 C44.6119575,39.2980416 42.9809244,39.0005165 41.2362054,39.0005165 C40.5510178,39.0005165 39.8883626,39.2840952 38.6086289,40.1245 C37.8210217,40.6425862 36.8997568,41.2417686 35.8714634,41.904485 C34.9921906,42.4695761 33.8010498,42.999026 32.3297914,43.4783719 C30.8943797,43.9468705 29.436948,44.1844774 27.9979516,44.1844774 C26.5599795,44.1844774 25.1025478,43.9468705 23.666112,43.4783719 C22.1963897,42.9995425 21.0047369,42.4700926 20.1270004,41.9050015 C19.1084368,41.2484836 18.1866598,40.6493012 17.3872743,40.1239835 C16.1085649,39.2835787 15.4459096,39 14.7607221,39 C13.015491,39 11.3849699,39.2980416 9.91371148,39.8858602 C8.43784404,40.4752284 7.16015882,41.2846412 6.11599031,42.292404 C5.11842278,43.2552281 4.22942009,44.4241504 3.47356296,45.7666288 C2.74484701,47.0605529 2.15490975,48.4102629 1.72065037,49.7785682 C1.30124181,51.1014183 0.950454488,52.5482372 0.67801818,54.0792514 C0.407630265,55.5968359 0.224811197,57.0364233 0.134169826,58.3587568 C0.0450646525,59.6516478 0,60.9972255 0,62.3567497 C0,65.8908927 1.11381389,68.7519887 3.31020356,70.8620404 C5.47945206,72.9441993 8.34925107,74 11.8402253,74 L44.1597747,74 C47.6497248,74 50.5195238,72.9441993 52.6892844,70.8620404 C54.8861862,68.7535383 56,65.8914093 56,62.3562331 C56,60.9920601 55.9539112,59.6464824 55.864294,58.3572072 L55.864294,58.3572072 Z M49.9164184,67.9596289 C48.4870201,69.3325889 46.5893268,70 44.114563,70 L11.8849264,70 C9.40965185,70 7.51195856,69.3325889 6.08307093,67.9601442 C4.68124953,66.6134685 4,64.7751245 4,62.3415221 C4,61.0757602 4.04136519,59.8259749 4.1240957,58.626181 C4.20478335,57.4490638 4.36973359,56.1559869 4.61435019,54.7819963 C4.85590263,53.425013 5.16333311,52.1515204 5.52898126,50.9986256 C5.87981953,49.8931455 6.35832843,48.7984882 6.95174057,47.7440303 C7.51808661,46.7390483 8.16971667,45.8768253 8.88875659,45.1820994 C9.56132443,44.5322111 10.4090562,44.0003437 11.4079497,43.6014431 C12.3317729,43.2324343 13.3699889,43.0304072 14.4970636,43 C14.634437,43.0736987 14.8790536,43.2143962 15.2753426,43.4751762 C16.0817091,44.0054974 17.01115,44.6105481 18.0386417,45.2728054 C19.1968679,46.0180381 20.6890799,46.6911184 22.47187,47.2719465 C24.2944931,47.8666896 26.1533748,48.1686996 27.9984679,48.1686996 C29.8435612,48.1686996 31.7029535,47.8666896 33.5245553,47.2724618 C35.3088774,46.6906031 36.8005789,46.0180381 37.960337,45.2717746 C39.0118308,44.5935408 39.9152268,44.0060127 40.7215934,43.4751762 C41.1178824,43.2149116 41.362499,43.0736987 41.4998724,43 C42.6274577,43.0304072 43.6656737,43.2324343 44.5900077,43.6014431 C45.5883906,44.0003437 46.4361222,44.5327264 47.1086902,45.1820994 C47.8277301,45.87631 48.47936,46.738533 49.0457061,47.7445457 C49.639629,48.7984882 50.1186484,49.8936609 50.4689761,50.9981103 C50.8351349,52.1525511 51.1430761,53.4255283 51.3841179,54.7814809 C51.6282237,56.1580484 51.7936846,57.4516407 51.8743724,58.6266965 L51.8743724,58.6277272 C51.9576135,59.8228827 51.9994894,61.0721526 52,62.3415221 C51.9994894,64.77564 51.3182398,66.6134685 49.9164184,67.9596289 L49.9164184,67.9596289 Z"></path>
        </g>
    </g>
</svg>